<svg width="98" height="40" viewBox="0 0 98 40" fill="none" xmlns="http://www.w3.org/2000/svg">
<path d="M13.7402 7.64989C13.1079 7.63456 12.6 7.11907 12.6 6.48477C12.6 5.85048 13.1079 5.33499 13.7402 5.31966C15.2081 5.31966 16.4001 4.12772 16.4001 2.65983C16.4001 1.19194 15.21 0 13.7402 0C10.1472 0 7.23438 2.88979 7.23438 6.48286C7.23438 10.0759 10.1472 12.9657 13.7402 12.9657C15.2081 12.9657 16.4001 11.7757 16.4001 10.3059C16.4001 8.83608 15.21 7.64605 13.7402 7.64605V7.64989Z" fill="#59D35A"/>
<path fill-rule="evenodd" clip-rule="evenodd" d="M25.3574 17.5945C24.2115 15.3466 22.2319 14.4383 21.3619 14.216C19.2847 13.691 18.2307 13.9803 16.9199 14.2275C16.3221 14.3406 14.5418 15.1608 12.8535 15.1569C11.1653 15.1531 9.6629 14.3329 9.10142 14.2275C7.79067 13.9803 6.7367 13.691 4.65943 14.216C3.78942 14.4383 1.80989 15.3466 0.663935 17.5945C-0.917016 20.6951 0.675429 23.1594 1.81563 28.5212C2.55149 31.39 2.42694 33.8639 4.1861 36.2612C5.94527 38.6585 8.54761 39.9175 12.6964 39.998C12.9264 40.0018 13.1199 40.0018 13.323 39.998C17.4718 39.9175 20.0742 38.6585 21.8334 36.2612C23.5925 33.8639 23.468 31.39 24.2038 28.5212C25.344 23.1594 26.9365 20.6951 25.3555 17.5945H25.3574Z" fill="#FF7500"/>
<path d="M76.7161 31.7034V14.4017H69.302V18.7734H71.2667V31.2588C71.2667 33.704 70.2288 35.1859 68.3382 35.4453L68.3753 39.3354C68.8201 39.3724 69.2649 39.4095 69.7469 39.4095C73.9729 39.4095 76.7161 36.3715 76.7161 31.7034ZM97.4756 33.0001H92.1745V29.5175H91.8038C90.8029 31.8516 88.5416 33.3335 85.8354 33.3335C82.2025 33.3335 79.7188 30.629 79.7188 26.4425V14.4388H85.2052V25.4422C85.2052 27.7021 86.4656 29.147 88.5416 29.147C90.6175 29.147 92.0262 27.628 92.0262 25.294V14.4388H97.4756V33.0001ZM62.3698 33.0001V29.888H62.0362C61.2207 31.9627 59.1447 33.3335 56.5127 33.3335C53.1022 33.3335 51.1004 31.0365 51.1004 27.9985C51.1004 25.3681 52.6203 23.4786 56.8463 22.7006L59.9973 22.1078C61.5914 21.8114 62.1845 21.2557 62.1845 20.2554C62.1845 19.0328 61.2948 18.2918 59.5154 18.2918C57.6619 18.2918 56.6239 19.1069 56.5127 20.6259L56.4756 21.0705H51.2858L51.3228 20.6259C51.6565 16.6246 54.8075 14.1053 59.8861 14.1053C65.1131 14.1053 67.6709 16.8099 67.6709 20.9593V33.0001H62.3698ZM62.1845 26.3313V24.4419C61.7396 24.7753 61.0353 25.0717 60.2198 25.2569L58.5887 25.6645C57.1429 25.9979 56.6239 26.6277 56.6239 27.628C56.6239 28.9618 57.5507 29.7028 59.1076 29.7028C60.9241 29.7028 62.1845 28.7025 62.1845 26.3313ZM49.5435 26.2572H43.9829C43.8346 27.8133 42.5001 28.8877 40.7207 28.8877C38.2741 28.8877 36.68 26.85 36.68 23.7009C36.68 20.5518 38.2741 18.5512 40.7207 18.5512C42.463 18.5512 43.7605 19.5885 43.9088 21.0705H49.4323C49.0986 16.8099 45.6511 14.0683 40.6836 14.0683C34.8265 14.0683 31.1195 17.9213 31.1565 23.775C31.1565 29.6287 34.8265 33.3335 40.6095 33.3335C45.6511 33.3335 49.2098 30.5549 49.5435 26.2572ZM73.6022 12.4752C75.604 12.4752 76.9756 11.1044 76.9756 9.06673C76.9756 7.06611 75.604 5.69531 73.6022 5.69531C71.5633 5.69531 70.1917 7.06611 70.1917 9.06673C70.1917 11.1044 71.5633 12.4752 73.6022 12.4752Z" fill="#E80537"/>
</svg>
