<svg width="81" height="29" viewBox="0 0 81 29" fill="none" xmlns="http://www.w3.org/2000/svg">
<path d="M62.352 25.7881C62.352 27.0359 63.2518 27.9272 64.4514 27.9272C65.6511 27.9272 66.5508 27.0359 66.5508 25.7881V17.1128C66.5508 13.6368 68.5302 11.7354 71.5894 11.7354C74.3186 11.7354 75.8781 13.3694 75.8781 16.2215V25.7881C75.8781 27.0359 76.7779 27.9272 77.9775 27.9272C79.1772 27.9272 80.0769 27.0359 80.0769 25.7881V15.8056C80.0769 11.052 77.2577 7.87308 72.5791 7.87308C69.9098 7.87308 68.1104 8.79409 67.0007 10.339C66.7907 10.6064 66.5208 10.547 66.5208 10.1904V2.1391C66.5208 0.891293 65.6211 0 64.4214 0C63.2218 0 62.322 0.891293 62.322 2.1391V25.7881H62.352ZM44.8671 13.7853C44.8671 16.8157 46.9665 18.42 49.6357 19.1925L53.1447 20.2026C54.6742 20.6186 55.454 21.1236 55.454 22.1635C55.454 23.5895 54.1944 24.3323 51.975 24.3323C50.4455 24.3323 49.2758 23.7381 48.406 22.8468C47.6563 22.1041 46.4866 21.9555 45.5569 22.6388C44.6571 23.3222 44.4772 24.6591 45.3169 25.5801C46.8765 27.2736 49.4557 28.1054 51.975 28.1054C55.7239 28.1054 59.5928 26.3228 59.5928 21.9555C59.5928 18.8657 57.6134 17.3505 54.5543 16.4592L51.0453 15.4491C49.4857 14.9737 49.0059 14.4389 49.0059 13.5476C49.0059 12.3593 50.1755 11.6165 52.005 11.6165C53.5346 11.6165 54.6742 12.2107 55.6939 12.9237C56.7137 13.6665 58.0033 13.5476 58.6331 12.6861C59.2629 11.8839 59.2929 10.7252 58.3332 9.86364C56.8336 8.58612 54.8242 7.81366 52.005 7.81366C48.1961 7.87308 44.8671 9.98248 44.8671 13.7853ZM25.6726 18.0041C25.6726 14.3201 28.1619 11.7354 31.8208 11.7354C35.4198 11.7354 37.9691 14.3795 37.9691 18.0041C37.9691 21.6881 35.4798 24.2729 31.8208 24.2729C28.2219 24.2729 25.6726 21.6584 25.6726 18.0041ZM21.3838 18.0041C21.3838 23.7381 25.6126 28.1351 31.131 28.1351C34.1302 28.1351 36.1396 27.0062 37.4592 25.2236C37.6991 24.9265 37.9391 25.0156 37.9391 25.3721V25.7584C37.9391 27.0062 38.8388 27.8975 40.0385 27.8975C41.2381 27.8975 42.1379 27.0062 42.1379 25.7584V10.2202C42.1379 8.97235 41.2381 8.08105 40.0385 8.08105C38.8388 8.08105 37.9391 8.97235 37.9391 10.2202V10.5173C37.9391 10.8738 37.6991 10.9926 37.4592 10.6658C36.1396 8.91293 34.1302 7.84337 31.161 7.84337C25.6726 7.87308 21.3838 12.3593 21.3838 18.0041ZM14.4258 25.7881C14.4258 27.0359 15.3256 27.9272 16.5252 27.9272C17.7249 27.9272 18.6246 27.0359 18.6246 25.7881V2.1391C18.6246 0.891293 17.7249 0 16.5252 0C15.3256 0 14.4258 0.891293 14.4258 2.1391V25.7881ZM5.06854 27.9272C6.26819 27.9272 7.16793 27.0359 7.16793 25.7881V12.6564C7.16793 12.4187 7.31789 12.2701 7.55782 12.2701H9.89715C11.0668 12.2701 11.9666 11.4085 11.9666 10.3093C11.9666 9.21002 11.0968 8.31873 9.92714 8.31873H7.58781C7.34788 8.31873 7.19793 8.17018 7.19793 7.9325V6.95208C7.19793 5.1695 8.18764 4.12966 9.92714 3.98111C11.3367 3.86227 12.1165 3.11952 12.1165 1.93113C12.1165 0.861583 11.4267 0 9.83716 0C5.87831 0 2.96914 3.03039 2.96914 7.10063V7.96221C2.96914 8.19989 2.81919 8.34844 2.57926 8.34844H2.0694C0.899741 8.31873 0 9.18031 0 10.3093C0 11.4383 0.899741 12.2701 2.0694 12.2701H2.57926C2.81919 12.2701 2.96914 12.4187 2.96914 12.6564V25.7881C2.96914 27.0359 3.86888 27.9272 5.06854 27.9272Z" fill="#FE2B8F"/>
</svg>
